<svg width="326" height="87" viewBox="0 0 326 87" fill="none" xmlns="http://www.w3.org/2000/svg">
<path d="M106.376 86.784C102.792 86.784 101 84.992 101 81.408V5.376C101 1.792 102.792 0 106.376 0H139.784C146.568 0 151.773 1.792 155.4 5.376C159.069 8.96 160.904 14.08 160.904 20.736V24.192C160.904 29.952 159.091 34.4107 155.464 37.568C162.248 41.3653 165.64 48.2987 165.64 58.368V62.72C165.64 70.5707 163.549 76.544 159.368 80.64C155.229 84.736 149.256 86.784 141.448 86.784H106.376ZM111.752 76.032H141.448C146.269 76.032 149.704 75.008 151.752 72.96C153.843 70.8693 154.888 67.456 154.888 62.72V58.368C154.888 53.632 153.885 50.2613 151.88 48.256C149.875 46.208 146.397 45.184 141.448 45.184H111.752V76.032ZM111.752 34.432H142.088C145.203 34.432 147.315 33.472 148.424 31.552C149.576 29.632 150.152 27.1787 150.152 24.192V20.736C150.152 17.024 149.384 14.4427 147.848 12.992C146.312 11.4987 143.624 10.752 139.784 10.752H111.752V34.432Z" fill="black"/>
<path d="M213.109 86.784C211.317 86.784 209.973 86.336 209.077 85.44C208.181 84.544 207.733 83.2 207.733 81.408V10.88H182.901C181.109 10.88 179.765 10.432 178.869 9.536C177.973 8.64 177.525 7.296 177.525 5.504C177.525 3.712 177.973 2.368 178.869 1.472C179.765 0.575999 181.109 0.127998 182.901 0.127998H243.317C245.109 0.127998 246.453 0.575999 247.349 1.472C248.245 2.368 248.693 3.712 248.693 5.504C248.693 7.296 248.245 8.64 247.349 9.536C246.453 10.432 245.109 10.88 243.317 10.88H218.485V81.408C218.485 83.1147 218.016 84.4373 217.077 85.376C216.181 86.3147 214.858 86.784 213.109 86.784Z" fill="black"/>
<path d="M271.126 86.784C267.542 86.784 265.75 84.992 265.75 81.408V5.376C265.75 1.792 267.542 0 271.126 0H301.078C308.886 0 314.859 2.09067 318.998 6.272C323.179 10.4107 325.27 16.384 325.27 24.192V28.032C325.27 35.84 323.179 41.8347 318.998 46.016C314.859 50.1547 308.886 52.224 301.078 52.224H276.502V81.408C276.502 84.992 274.71 86.784 271.126 86.784ZM276.502 41.472H301.078C305.942 41.472 309.398 40.448 311.446 38.4C313.494 36.352 314.518 32.896 314.518 28.032V24.192C314.518 19.3707 313.494 15.936 311.446 13.888C309.398 11.7973 305.942 10.752 301.078 10.752H276.502V41.472Z" fill="black"/>
<path d="M29.5 86.784C19.7293 86.784 12.4973 84.4587 7.804 79.808C3.15334 75.1147 0.828003 67.8827 0.828003 58.112V5.376C0.828003 3.584 1.276 2.24 2.172 1.344C3.068 0.448001 4.412 0 6.204 0C7.996 0 9.34 0.448001 10.236 1.344C11.132 2.24 11.58 3.584 11.58 5.376V58.112C11.58 62.6773 12.1133 66.2613 13.18 68.864C14.2893 71.4667 16.1453 73.3227 18.748 74.432C21.3507 75.4987 24.9347 76.032 29.5 76.032L52.3282 76.0324C56.8935 76.0324 60.4775 75.499 63.0802 74.4324C65.6828 73.323 67.5174 71.467 68.5841 68.8644C69.6934 66.2617 70.248 62.6777 70.248 58.1124V5.37637C70.248 3.58437 70.696 2.24037 71.592 1.34437C72.488 0.448367 73.832 0.000366211 75.624 0.000366211C77.416 0.000366211 78.76 0.448367 79.656 1.34437C80.552 2.24037 81 3.58437 81 5.37637V58.1124C81 67.883 78.6747 75.115 74.024 79.8084C69.3734 84.459 62.1415 86.7844 52.3282 86.7844L29.5 86.784Z" fill="black"/>
</svg>
