<svg width="99" height="107" viewBox="0 0 99 107" fill="none" xmlns="http://www.w3.org/2000/svg">
<path d="M37.672 96.784C27.9013 96.784 20.6693 94.4587 15.976 89.808C11.3253 85.1147 9 77.8827 9 68.112V15.376C9 13.584 9.448 12.24 10.344 11.344C11.24 10.448 12.584 10 14.376 10C16.168 10 17.512 10.448 18.408 11.344C19.304 12.24 19.752 13.584 19.752 15.376V68.112C19.752 72.6773 20.2853 76.2613 21.352 78.864C22.4613 81.4667 24.3173 83.3227 26.92 84.432C29.5227 85.4987 33.1067 86.032 37.672 86.032L60.5002 86.0324C65.0655 86.0324 68.6495 85.499 71.2522 84.4324C73.8548 83.323 75.6894 81.467 76.7561 78.8644C77.8654 76.2617 78.42 72.6777 78.42 68.1124V15.3764C78.42 13.5844 78.868 12.2404 79.764 11.3444C80.66 10.4484 82.004 10.0004 83.796 10.0004C85.588 10.0004 86.932 10.4484 87.828 11.3444C88.724 12.2404 89.172 13.5844 89.172 15.3764V68.1124C89.172 77.883 86.8467 85.115 82.196 89.8084C77.5453 94.459 70.3135 96.7844 60.5002 96.7844L37.672 96.784Z" fill="#3546FF"/>
</svg>
